<svg xmlns="http://www.w3.org/2000/svg">
	<!-- setting (theme) -->
	<symbol viewBox="0 0 40 40" id="setting">
		<path
			d="M20.0001 13.3333C19.558 13.3333 19.1341 13.5089 18.8216 13.8215C18.509 14.134 18.3334 14.558 18.3334 15C18.3334 15.442 18.509 15.8659 18.8216 16.1785C19.1341 16.4911 19.558 16.6667 20.0001 16.6667C20.8841 16.6667 21.732 17.0179 22.3571 17.643C22.9822 18.2681 23.3334 19.1159 23.3334 20C23.3334 20.8841 22.9822 21.7319 22.3571 22.357C21.732 22.9821 20.8841 23.3333 20.0001 23.3333C19.558 23.3333 19.1341 23.5089 18.8216 23.8215C18.509 24.134 18.3334 24.558 18.3334 25C18.3334 25.442 18.509 25.8659 18.8216 26.1785C19.1341 26.4911 19.558 26.6667 20.0001 26.6667C21.7682 26.6667 23.4639 25.9643 24.7141 24.714C25.9643 23.4638 26.6667 21.7681 26.6667 20C26.6667 18.2319 25.9643 16.5362 24.7141 15.286C23.4639 14.0357 21.7682 13.3333 20.0001 13.3333ZM36.1834 18.8167L32.2667 15V9.4C32.2667 8.95797 32.0911 8.53405 31.7786 8.22149C31.466 7.90893 31.0421 7.73333 30.6001 7.73333H25.0834L21.1834 3.81667C21.0285 3.66045 20.8441 3.53646 20.641 3.45185C20.4379 3.36723 20.2201 3.32367 20.0001 3.32367C19.78 3.32367 19.5622 3.36723 19.3591 3.45185C19.156 3.53646 18.9717 3.66045 18.8167 3.81667L15.0001 7.73333H9.40006C8.95803 7.73333 8.53411 7.90893 8.22155 8.22149C7.90899 8.53405 7.73339 8.95797 7.73339 9.4V15L3.81673 18.8167C3.66051 18.9716 3.53652 19.1559 3.45191 19.359C3.36729 19.5621 3.32373 19.78 3.32373 20C3.32373 20.22 3.36729 20.4379 3.45191 20.641C3.53652 20.8441 3.66051 21.0284 3.81673 21.1833L7.73339 25.0833V30.6C7.73339 31.042 7.90899 31.4659 8.22155 31.7785C8.53411 32.0911 8.95803 32.2667 9.40006 32.2667H15.0001L18.9001 36.1833C19.055 36.3395 19.2393 36.4635 19.4424 36.5481C19.6455 36.6328 19.8634 36.6763 20.0834 36.6763C20.3034 36.6763 20.5213 36.6328 20.7244 36.5481C20.9275 36.4635 21.1118 36.3395 21.2667 36.1833L25.1667 32.2667H30.6834C31.1254 32.2667 31.5493 32.0911 31.8619 31.7785C32.1745 31.4659 32.3501 31.042 32.3501 30.6V25.0833L36.2667 21.1833C36.4176 21.023 36.5352 20.8343 36.6128 20.6282C36.6903 20.4221 36.7262 20.2027 36.7185 19.9826C36.7107 19.7626 36.6595 19.5462 36.5676 19.3461C36.4758 19.146 36.3452 18.966 36.1834 18.8167ZM29.4334 23.2167C29.2759 23.371 29.1506 23.5551 29.0648 23.7582C28.979 23.9613 28.9343 24.1795 28.9334 24.4V28.9333H24.4001C24.1796 28.9342 23.9614 28.9789 23.7583 29.0647C23.5552 29.1506 23.3711 29.2759 23.2167 29.4333L20.0001 32.65L16.7834 29.4333C16.629 29.2759 16.445 29.1506 16.2418 29.0647C16.0387 28.9789 15.8206 28.9342 15.6001 28.9333H11.0667V24.4C11.0658 24.1795 11.0211 23.9613 10.9353 23.7582C10.8495 23.5551 10.7242 23.371 10.5667 23.2167L7.35006 20L10.5667 16.7833C10.7242 16.629 10.8495 16.4449 10.9353 16.2418C11.0211 16.0386 11.0658 15.8205 11.0667 15.6V11.0667H15.6001C15.8206 11.0658 16.0387 11.0211 16.2418 10.9353C16.445 10.8494 16.629 10.7241 16.7834 10.5667L20.0001 7.35L23.2167 10.5667C23.3711 10.7241 23.5552 10.8494 23.7583 10.9353C23.9614 11.0211 24.1796 11.0658 24.4001 11.0667H28.9334V15.6C28.9343 15.8205 28.979 16.0386 29.0648 16.2418C29.1506 16.4449 29.2759 16.629 29.4334 16.7833L32.6501 20L29.4334 23.2167Z"
			fill="currentColor" />
	</symbol>
	<!-- github -->
	<symbol viewBox="0 0 36 36" id="github">
		<path
			d="M18 3.37005C14.4383 3.3702 10.9927 4.63772 8.27999 6.94582C5.56724 9.25392 3.76429 12.452 3.19374 15.9678C2.62319 19.4836 3.32227 23.0877 5.16589 26.1352C7.00951 29.1827 9.87737 31.4748 13.2563 32.6013C14.0063 32.7326 14.2876 32.2826 14.2876 31.8888C14.2876 31.5325 14.2688 30.3513 14.2688 29.095C10.5 29.7888 9.52504 28.1763 9.22504 27.3326C8.89215 26.512 8.36445 25.7848 7.68754 25.2138C7.16254 24.9325 6.41254 24.2388 7.66878 24.2201C8.14846 24.2721 8.60852 24.439 9.00999 24.7067C9.41145 24.9743 9.74249 25.3348 9.97504 25.7575C10.1802 26.1261 10.4561 26.4505 10.7868 26.7123C11.1176 26.974 11.4968 27.1679 11.9026 27.2829C12.3084 27.3979 12.733 27.4316 13.1519 27.3822C13.5708 27.3328 13.9758 27.2012 14.3438 26.995C14.4087 26.2325 14.7486 25.5195 15.3 24.9888C11.9625 24.6138 8.47504 23.32 8.47504 17.5826C8.45396 16.0918 9.00407 14.6495 10.0125 13.5513C9.55396 12.2557 9.60762 10.8338 10.1625 9.57634C10.1625 9.57634 11.4187 9.18258 14.2875 11.1138C16.742 10.4388 19.3331 10.4388 21.7875 11.1138C24.6563 9.16384 25.9125 9.57634 25.9125 9.57634C26.4675 10.8338 26.5212 12.2557 26.0625 13.5513C27.0741 14.6476 27.6246 16.0912 27.6 17.5826C27.6 23.3388 24.0938 24.6138 20.7563 24.9888C21.1143 25.3517 21.39 25.7873 21.5647 26.2661C21.7394 26.7449 21.809 27.2557 21.7688 27.7638C21.7688 29.7701 21.75 31.3826 21.75 31.8888C21.75 32.2826 22.0313 32.7513 22.7813 32.6013C26.1543 31.4656 29.0139 29.1682 30.8497 26.1191C32.6854 23.07 33.3779 19.4678 32.8034 15.9554C32.2289 12.443 30.4248 9.24911 27.7132 6.94381C25.0017 4.63852 21.5591 3.3719 18 3.37005V3.37005Z"
			fill="currentColor" />
	</symbol>
	<!-- twitter -->
	<symbol viewBox="0 0 36 36" id="twitter">
		<path
			d="M33 8.7C31.8725 9.18914 30.6801 9.5125 29.46 9.66C30.7473 8.89098 31.7119 7.68118 32.175 6.255C30.9653 6.9751 29.6411 7.48245 28.26 7.755C27.3368 6.75386 26.1075 6.08745 24.7647 5.86028C23.422 5.63311 22.0418 5.85804 20.8407 6.49979C19.6396 7.14153 18.6854 8.1638 18.1279 9.40626C17.5703 10.6487 17.4409 12.0411 17.76 13.365C15.3141 13.2413 12.9217 12.6044 10.738 11.4958C8.5543 10.3872 6.62827 8.83154 5.085 6.93C4.54371 7.87525 4.25928 8.94574 4.26 10.035C4.25808 11.0466 4.50633 12.0429 4.98263 12.9353C5.45894 13.8278 6.14853 14.5886 6.99 15.15C6.01197 15.1234 5.05483 14.8609 4.2 14.385V14.46C4.20733 15.8773 4.70399 17.2486 5.60597 18.3419C6.50795 19.4353 7.75988 20.1835 9.15 20.46C8.61488 20.6229 8.05931 20.7087 7.5 20.715C7.11284 20.7105 6.72663 20.6754 6.345 20.61C6.74086 21.8292 7.50693 22.8947 8.53661 23.6582C9.56629 24.4218 10.8084 24.8453 12.09 24.87C9.9258 26.5729 7.25383 27.5023 4.5 27.51C3.9986 27.5116 3.4976 27.4816 3 27.42C5.81164 29.2354 9.08822 30.1991 12.435 30.195C14.7445 30.219 17.0357 29.7825 19.1747 28.9111C21.3136 28.0397 23.2575 26.7508 24.8928 25.1197C26.5281 23.4887 27.8219 21.5481 28.6988 19.4114C29.5757 17.2746 30.0181 14.9846 30 12.675C30 12.42 30 12.15 30 11.88C31.177 11.0022 32.1922 9.92614 33 8.7Z"
			fill="currentColor" />
	</symbol>

	<!-- linkedin -->
	<symbol viewBox="0 0 36 36" id="linkedin">
		<path
			d="M30.7048 3H5.29484C5.00921 2.99603 4.72559 3.04837 4.46019 3.15402C4.19479 3.25968 3.9528 3.41658 3.74804 3.61576C3.54328 3.81495 3.37977 4.05252 3.26683 4.31491C3.1539 4.5773 3.09376 4.85936 3.08984 5.145V30.855C3.09376 31.1406 3.1539 31.4227 3.26683 31.6851C3.37977 31.9475 3.54328 32.185 3.74804 32.3842C3.9528 32.5834 4.19479 32.7403 4.46019 32.846C4.72559 32.9516 5.00921 33.004 5.29484 33H30.7048C30.9905 33.004 31.2741 32.9516 31.5395 32.846C31.8049 32.7403 32.0469 32.5834 32.2516 32.3842C32.4564 32.185 32.6199 31.9475 32.7329 31.6851C32.8458 31.4227 32.9059 31.1406 32.9098 30.855V5.145C32.9059 4.85936 32.8458 4.5773 32.7329 4.31491C32.6199 4.05252 32.4564 3.81495 32.2516 3.61576C32.0469 3.41658 31.8049 3.25968 31.5395 3.15402C31.2741 3.04837 30.9905 2.99603 30.7048 3ZM12.1348 28.11H7.63484V14.61H12.1348V28.11ZM9.88484 12.72C9.26424 12.72 8.66905 12.4735 8.23021 12.0346C7.79138 11.5958 7.54484 11.0006 7.54484 10.38C7.54484 9.75939 7.79138 9.1642 8.23021 8.72537C8.66905 8.28653 9.26424 8.04 9.88484 8.04C10.2144 8.00262 10.5481 8.03528 10.8642 8.13582C11.1802 8.23636 11.4715 8.40253 11.7188 8.62344C11.9662 8.84435 12.1641 9.11501 12.2996 9.41772C12.4352 9.72042 12.5052 10.0483 12.5052 10.38C12.5052 10.7117 12.4352 11.0396 12.2996 11.3423C12.1641 11.645 11.9662 11.9156 11.7188 12.1366C11.4715 12.3575 11.1802 12.5236 10.8642 12.6242C10.5481 12.7247 10.2144 12.7574 9.88484 12.72ZM28.3648 28.11H23.8648V20.865C23.8648 19.05 23.2198 17.865 21.5848 17.865C21.0788 17.8687 20.5861 18.0274 20.1731 18.3198C19.7601 18.6121 19.4466 19.024 19.2748 19.5C19.1575 19.8526 19.1066 20.2239 19.1248 20.595V28.095H14.6248C14.6248 28.095 14.6248 15.825 14.6248 14.595H19.1248V16.5C19.5336 15.7907 20.1282 15.2063 20.8445 14.8098C21.5608 14.4133 22.3717 14.2198 23.1898 14.25C26.1898 14.25 28.3648 16.185 28.3648 20.34V28.11Z"
			fill="currentColor" />
	</symbol>
	<!-- youtube -->
	<symbol viewBox="0 0 36 36" id="youtube">
		<path
			d="M34.5 14.565C34.5742 12.418 34.1047 10.287 33.135 8.37C32.4771 7.5834 31.5641 7.05256 30.555 6.87C26.3813 6.49129 22.1903 6.33607 18 6.405C13.825 6.33294 9.6491 6.48315 5.49004 6.855C4.66777 7.00457 3.90682 7.39026 3.30004 7.965C1.95004 9.21 1.80004 11.34 1.65004 13.14C1.43241 16.3763 1.43241 19.6237 1.65004 22.86C1.69344 23.8731 1.84428 24.8787 2.10004 25.86C2.2809 26.6176 2.64682 27.3185 3.16504 27.9C3.77594 28.5052 4.55462 28.9128 5.40004 29.07C8.63391 29.4692 11.8924 29.6346 15.15 29.565C20.4 29.64 25.005 29.565 30.45 29.145C31.3162 28.9975 32.1168 28.5893 32.745 27.975C33.165 27.5549 33.4787 27.0406 33.66 26.475C34.1965 24.8289 34.46 23.1062 34.44 21.375C34.5 20.535 34.5 15.465 34.5 14.565ZM14.61 22.275V12.99L23.49 17.655C21 19.035 17.715 20.595 14.61 22.275Z"
			fill="currentColor" />
	</symbol>
	<!-- close -->
	<symbol width="20" height="22" viewBox="0 0 20 22" id="close">
		<line x1="1" y1="-1" x2="25.9102" y2="-1" transform="matrix(0.704307 0.709896 -0.621947 0.78306 0 2)" stroke="currentColor" stroke-width="2" stroke-linecap="round"/>
		<line x1="1" y1="-1" x2="25.9102" y2="-1" transform="matrix(0.704307 -0.709896 0.621947 0.78306 1 21.1035)" stroke="currentColor" stroke-width="2" stroke-linecap="round"/>
	</symbol>
</svg>